<svg id="visual" viewBox="0 0 1920 700" width="1920" height="700" xmlns="http://www.w3.org/2000/svg" xmlns:xlink="http://www.w3.org/1999/xlink" version="1.1"><rect x="0" y="0" width="1920" height="700" fill="#212529"></rect><path d="M0 444L45.7 448C91.3 452 182.7 460 274.2 469.5C365.7 479 457.3 490 548.8 498C640.3 506 731.7 511 823 510C914.3 509 1005.7 502 1097 488.3C1188.3 474.7 1279.7 454.3 1371.2 446.8C1462.7 439.3 1554.3 444.7 1645.8 458.5C1737.3 472.3 1828.7 494.7 1874.3 505.8L1920 517L1920 701L1874.3 701C1828.7 701 1737.3 701 1645.8 701C1554.3 701 1462.7 701 1371.2 701C1279.7 701 1188.3 701 1097 701C1005.7 701 914.3 701 823 701C731.7 701 640.3 701 548.8 701C457.3 701 365.7 701 274.2 701C182.7 701 91.3 701 45.7 701L0 701Z" fill="#7df1d1"></path><path d="M0 505L45.7 510.2C91.3 515.3 182.7 525.7 274.2 523.5C365.7 521.3 457.3 506.7 548.8 504.7C640.3 502.7 731.7 513.3 823 524.5C914.3 535.7 1005.7 547.3 1097 548.3C1188.3 549.3 1279.7 539.7 1371.2 529.8C1462.7 520 1554.3 510 1645.8 506.5C1737.3 503 1828.7 506 1874.3 507.5L1920 509L1920 701L1874.3 701C1828.7 701 1737.3 701 1645.8 701C1554.3 701 1462.7 701 1371.2 701C1279.7 701 1188.3 701 1097 701C1005.7 701 914.3 701 823 701C731.7 701 640.3 701 548.8 701C457.3 701 365.7 701 274.2 701C182.7 701 91.3 701 45.7 701L0 701Z" fill="#59edc4"></path><path d="M0 559L45.7 554.8C91.3 550.7 182.7 542.3 274.2 544.8C365.7 547.3 457.3 560.7 548.8 569.3C640.3 578 731.7 582 823 581.3C914.3 580.7 1005.7 575.3 1097 563.8C1188.3 552.3 1279.7 534.7 1371.2 534.7C1462.7 534.7 1554.3 552.3 1645.8 557.5C1737.3 562.7 1828.7 555.3 1874.3 551.7L1920 548L1920 701L1874.3 701C1828.7 701 1737.3 701 1645.8 701C1554.3 701 1462.7 701 1371.2 701C1279.7 701 1188.3 701 1097 701C1005.7 701 914.3 701 823 701C731.7 701 640.3 701 548.8 701C457.3 701 365.7 701 274.2 701C182.7 701 91.3 701 45.7 701L0 701Z" fill="#1de9b7"></path><path d="M0 605L45.7 607C91.3 609 182.7 613 274.2 611.5C365.7 610 457.3 603 548.8 605.7C640.3 608.3 731.7 620.7 823 622.3C914.3 624 1005.7 615 1097 611.7C1188.3 608.3 1279.7 610.7 1371.2 603.5C1462.7 596.3 1554.3 579.7 1645.8 571.3C1737.3 563 1828.7 563 1874.3 563L1920 563L1920 701L1874.3 701C1828.7 701 1737.3 701 1645.8 701C1554.3 701 1462.7 701 1371.2 701C1279.7 701 1188.3 701 1097 701C1005.7 701 914.3 701 823 701C731.7 701 640.3 701 548.8 701C457.3 701 365.7 701 274.2 701C182.7 701 91.3 701 45.7 701L0 701Z" fill="#19ca9e"></path><path d="M0 641L45.7 642.5C91.3 644 182.7 647 274.2 644.3C365.7 641.7 457.3 633.3 548.8 632.7C640.3 632 731.7 639 823 640C914.3 641 1005.7 636 1097 632.8C1188.3 629.7 1279.7 628.3 1371.2 627.8C1462.7 627.3 1554.3 627.7 1645.8 626.3C1737.3 625 1828.7 622 1874.3 620.5L1920 619L1920 701L1874.3 701C1828.7 701 1737.3 701 1645.8 701C1554.3 701 1462.7 701 1371.2 701C1279.7 701 1188.3 701 1097 701C1005.7 701 914.3 701 823 701C731.7 701 640.3 701 548.8 701C457.3 701 365.7 701 274.2 701C182.7 701 91.3 701 45.7 701L0 701Z" fill="#15ab86"></path></svg>